<svg id="Layer_1" data-name="Layer 1" xmlns="http://www.w3.org/2000/svg" xmlns:xlink="http://www.w3.org/1999/xlink" viewBox="0 0 209.97 96.38"><defs><radialGradient id="radial-gradient" cx="610.15" cy="-480.98" r="32.74" gradientTransform="matrix(1, 0, 0, -1, -510.19, -459.81)" gradientUnits="userSpaceOnUse"><stop offset="0.39" stop-color="#dde3e6"/><stop offset="1" stop-color="#86959d"/></radialGradient><radialGradient id="radial-gradient-2" cx="610.99" cy="-481.57" r="23.01" gradientTransform="matrix(1, 0, 0, -1, -510.19, -459.81)" gradientUnits="userSpaceOnUse"><stop offset="0.17" stop-color="#ee5da1"/><stop offset="0.29" stop-color="#e95ba0"/><stop offset="0.43" stop-color="#dc549e"/><stop offset="0.57" stop-color="#c6489a"/><stop offset="0.71" stop-color="#a73894"/><stop offset="0.8" stop-color="#902c90"/><stop offset="1" stop-color="#83298f"/></radialGradient></defs><path d="M3.57,93.85l-.08-.71h0A2.09,2.09,0,0,1,1.77,94,1.61,1.61,0,0,1,0,92.49v-.13C0,91,1.25,90.25,3.43,90.27v-.08a1.16,1.16,0,0,0-1-1.3,1.31,1.31,0,0,0-.28,0,2.81,2.81,0,0,0-1.47.41l-.23-.67a3.55,3.55,0,0,1,1.85-.5c1.73,0,2.14,1.17,2.14,2.3v2.11a7.67,7.67,0,0,0,.1,1.35ZM3.42,91C2.3,91,1,91.15,1,92.24a.9.9,0,0,0,.79,1,.74.74,0,0,0,.21,0,1.39,1.39,0,0,0,1.36-.94A1,1,0,0,0,3.45,92Z" transform="translate(-0.04 0)" style="fill:#231f20"/><path d="M11.51,85.58v8.27h-.92l-.05-1h0A2.1,2.1,0,0,1,8.61,94a2.56,2.56,0,0,1-2.42-2.71.76.76,0,0,1,0-.15c0-1.88,1.16-3,2.53-3a1.9,1.9,0,0,1,1.7.86h0V85.59Zm-1,4.93a3.09,3.09,0,0,0,0-.43A1.51,1.51,0,0,0,9,88.89c-1.06,0-1.69.93-1.69,2.18s.47,2.12,1.6,2.12A1.54,1.54,0,0,0,10.44,92a1.62,1.62,0,0,0,0-.44Z" transform="translate(-0.04 0)" style="fill:#231f20"/><path d="M14.19,88.19l1.1,3.16c.18.48.33,1,.46,1.45h0c.13-.47.29-.93.48-1.45l1.09-3.16H18.4l-2.22,5.63h-1l-2.09-5.63Z" transform="translate(-0.04 0)" style="fill:#231f20"/><path d="M23.05,93.85,23,93.14h0a2.09,2.09,0,0,1-1.72.84,1.6,1.6,0,0,1-1.72-1.48v-.14c0-1.36,1.21-2.11,3.38-2.09v-.08a1.15,1.15,0,0,0-1-1.3,1.5,1.5,0,0,0-.3,0,2.8,2.8,0,0,0-1.46.41l-.24-.67a3.55,3.55,0,0,1,1.85-.5c1.73,0,2.15,1.17,2.15,2.3v2.11A7.66,7.66,0,0,0,24,93.89ZM22.9,91c-1.12,0-2.39.17-2.39,1.26a.9.9,0,0,0,.79,1,.74.74,0,0,0,.21,0,1.39,1.39,0,0,0,1.36-.94,1,1,0,0,0,.06-.33Z" transform="translate(-0.04 0)" style="fill:#231f20"/><path d="M26.12,89.74V88.22H27l0,.93h0a2.07,2.07,0,0,1,1.86-1.06c.78,0,2,.46,2,2.4v3.36h-1V90.6c0-.91-.34-1.66-1.31-1.66a1.45,1.45,0,0,0-1.37,1,1.25,1.25,0,0,0-.07.47V93.8h-1Z" transform="translate(-0.04 0)" style="fill:#231f20"/><path d="M37.19,93.64a3.76,3.76,0,0,1-1.62.33,2.68,2.68,0,0,1-2.77-2.59,2.81,2.81,0,0,1,0-.29,2.87,2.87,0,0,1,2.73-3h.27a3.32,3.32,0,0,1,1.42.29l-.23.79a2.47,2.47,0,0,0-1.19-.27,2,2,0,0,0-2,2,.65.65,0,0,0,0,.14,1.93,1.93,0,0,0,1.75,2.09h.25a2.87,2.87,0,0,0,1.26-.28Z" transform="translate(-0.04 0)" style="fill:#231f20"/><path d="M39.47,91.19a1.8,1.8,0,0,0,1.58,2,1.37,1.37,0,0,0,.35,0A3.64,3.64,0,0,0,43,92.9l.18.73a4.52,4.52,0,0,1-1.88.35,2.61,2.61,0,0,1-2.77-2.46,2.41,2.41,0,0,1,0-.38,2.7,2.7,0,0,1,2.64-3,2.39,2.39,0,0,1,2.34,2.44,1.48,1.48,0,0,1,0,.21,3.84,3.84,0,0,1,0,.48Zm3-.73a1.45,1.45,0,0,0-1.21-1.65l-.21,0a1.7,1.7,0,0,0-1.57,1.67Z" transform="translate(-0.04 0)" style="fill:#231f20"/><path d="M50.18,85.58v8.27h-.92v-1h0A2.08,2.08,0,0,1,47.34,94a2.56,2.56,0,0,1-2.42-2.71.76.76,0,0,1,0-.15c0-1.88,1.15-3,2.53-3a1.9,1.9,0,0,1,1.7.86h0V85.59Zm-1,4.93a1.58,1.58,0,0,0,0-.43,1.51,1.51,0,0,0-1.48-1.19c-1.06,0-1.69.93-1.69,2.18s.56,2.08,1.67,2.08a1.53,1.53,0,0,0,1.5-1.22,1.61,1.61,0,0,0,0-.44Z" transform="translate(-0.04 0)" style="fill:#231f20"/><path d="M55.52,85.58h1V89.1h0a1.75,1.75,0,0,1,.73-.72,2.07,2.07,0,0,1,1-.29c.75,0,2,.46,2,2.41v3.35h-1V90.61c0-.9-.34-1.67-1.3-1.67a1.48,1.48,0,0,0-1.38,1,1.17,1.17,0,0,0-.07.49v3.4h-1Z" transform="translate(-0.04 0)" style="fill:#231f20"/><path d="M67.66,91a2.76,2.76,0,0,1-2.49,3h-.31a2.68,2.68,0,0,1-2.72-2.64,2.26,2.26,0,0,1,0-.26,2.76,2.76,0,0,1,2.49-3H65a2.66,2.66,0,0,1,2.72,2.6C67.67,90.79,67.67,90.89,67.66,91Zm-4.47.06c0,1.23.71,2.16,1.71,2.16s1.71-.92,1.71-2.19c0-1-.47-2.16-1.68-2.16S63.19,90,63.19,91.05Z" transform="translate(-0.04 0)" style="fill:#231f20"/><path d="M70.81,86.6v1.59h1.47V89H70.81v3c0,.69.2,1.09.77,1.09a2.46,2.46,0,0,0,.6-.07v.77a2.55,2.55,0,0,1-.91.14,1.42,1.42,0,0,1-1.1-.43,2.14,2.14,0,0,1-.4-1.47V88.93H68.9v-.74h.91V86.84Z" transform="translate(-0.04 0)" style="fill:#231f20"/><path d="M74.48,91.19a1.8,1.8,0,0,0,1.58,2,1.37,1.37,0,0,0,.35,0A3.8,3.8,0,0,0,78,92.9l.17.73a4.45,4.45,0,0,1-1.87.35,2.62,2.62,0,0,1-2.78-2.43c0-.14,0-.27,0-.41a2.7,2.7,0,0,1,2.64-3,2.39,2.39,0,0,1,2.34,2.44,1.48,1.48,0,0,1,0,.21,3.84,3.84,0,0,1,0,.48Zm3-.73a1.47,1.47,0,0,0-1.26-1.66h-.16a1.7,1.7,0,0,0-1.57,1.67Z" transform="translate(-0.04 0)" style="fill:#231f20"/><path d="M80.32,85.58h1v8.27h-1Z" transform="translate(-0.04 0)" style="fill:#231f20"/><path d="M86.7,89.74V88.22h.89v.9h0a2,2,0,0,1,1.77-1A1.67,1.67,0,0,1,91,89.25h0a2.37,2.37,0,0,1,.63-.74,2,2,0,0,1,1.25-.39c.74,0,1.85.49,1.85,2.44v3.32h-1V90.69c0-1.08-.4-1.73-1.22-1.73a1.33,1.33,0,0,0-1.22.93,1.81,1.81,0,0,0-.08.51v3.48h-1V90.51c0-.9-.39-1.55-1.17-1.55a1.55,1.55,0,0,0-1.36,1.52v3.4h-1Z" transform="translate(-0.04 0)" style="fill:#231f20"/><path d="M100.12,93.85l-.08-.71h0a2.09,2.09,0,0,1-1.72.84A1.6,1.6,0,0,1,96.6,92.5v-.14c0-1.36,1.21-2.11,3.38-2.09v-.08a1.15,1.15,0,0,0-1-1.3,1.5,1.5,0,0,0-.3,0,2.8,2.8,0,0,0-1.46.41L97,88.63a3.55,3.55,0,0,1,1.85-.5c1.73,0,2.15,1.17,2.15,2.3v2.11a7.66,7.66,0,0,0,.09,1.35ZM100,91c-1.12,0-2.39.17-2.39,1.26a.9.9,0,0,0,.79,1,.74.74,0,0,0,.21,0,1.39,1.39,0,0,0,1.36-.94A1,1,0,0,0,100,92Z" transform="translate(-0.04 0)" style="fill:#231f20"/><path d="M103.19,89.74V88.22h.91v.93h0A2.07,2.07,0,0,1,106,88.09c.78,0,2,.46,2,2.4v3.36h-1V90.6c0-.91-.34-1.66-1.31-1.66a1.45,1.45,0,0,0-1.37,1,1.25,1.25,0,0,0-.07.47V93.8h-1Z" transform="translate(-0.04 0)" style="fill:#231f20"/><path d="M113.36,93.85l-.08-.71h0a2.09,2.09,0,0,1-1.72.84,1.6,1.6,0,0,1-1.72-1.48v-.14c0-1.36,1.21-2.11,3.38-2.09v-.08a1.15,1.15,0,0,0-1-1.3,1.5,1.5,0,0,0-.3,0,2.8,2.8,0,0,0-1.46.41l-.24-.67a3.55,3.55,0,0,1,1.85-.5c1.73,0,2.15,1.17,2.15,2.3v2.11a7.66,7.66,0,0,0,.09,1.35ZM113.21,91c-1.12,0-2.39.17-2.39,1.26a.9.9,0,0,0,.79,1,.74.74,0,0,0,.21,0,1.39,1.39,0,0,0,1.36-.94,1,1,0,0,0,.06-.33Z" transform="translate(-0.04 0)" style="fill:#231f20"/><path d="M121.29,88.19c0,.4-.05.86-.05,1.54V93a3.23,3.23,0,0,1-.8,2.57,3,3,0,0,1-2,.68,3.61,3.61,0,0,1-1.87-.47l.25-.78a3.22,3.22,0,0,0,1.66.44c1,0,1.81-.55,1.81-2v-.62h0a2,2,0,0,1-1.79.94,2.52,2.52,0,0,1-2.41-2.63s0-.08,0-.12a2.71,2.71,0,0,1,2.38-3h.15a1.87,1.87,0,0,1,1.76,1h0v-.85Zm-1.06,2.22a1.24,1.24,0,0,0-.06-.47,1.47,1.47,0,0,0-1.43-1.08c-1,0-1.68.83-1.68,2.13,0,1.11.56,2,1.67,2a1.5,1.5,0,0,0,1.42-1,1.7,1.7,0,0,0,.08-.55Z" transform="translate(-0.04 0)" style="fill:#231f20"/><path d="M124.1,91.19a1.8,1.8,0,0,0,1.58,2,1.37,1.37,0,0,0,.35,0,3.64,3.64,0,0,0,1.56-.29l.17.73a4.45,4.45,0,0,1-1.87.35,2.62,2.62,0,0,1-2.78-2.43c0-.14,0-.27,0-.41a2.7,2.7,0,0,1,2.64-3,2.39,2.39,0,0,1,2.34,2.44,1.48,1.48,0,0,1,0,.21,3.84,3.84,0,0,1,0,.48Zm3-.73a1.47,1.47,0,0,0-1.26-1.66h-.16a1.7,1.7,0,0,0-1.57,1.67Z" transform="translate(-0.04 0)" style="fill:#231f20"/><path d="M129.94,89.74V88.22h.87v.9h0a2,2,0,0,1,1.77-1,1.67,1.67,0,0,1,1.6,1.13h0a2.37,2.37,0,0,1,.63-.74,2,2,0,0,1,1.25-.39c.74,0,1.85.49,1.85,2.44v3.32h-1V90.69c0-1.08-.4-1.73-1.23-1.73a1.33,1.33,0,0,0-1.21.93,1.81,1.81,0,0,0-.08.51v3.48h-1V90.51c0-.9-.4-1.55-1.18-1.55a1.56,1.56,0,0,0-1.35,1.52v3.4h-1Z" transform="translate(-0.04 0)" style="fill:#231f20"/><path d="M140.81,91.19a1.8,1.8,0,0,0,1.58,2,1.37,1.37,0,0,0,.35,0,3.64,3.64,0,0,0,1.56-.29l.18.73a4.69,4.69,0,0,1-1.88.35,2.61,2.61,0,0,1-2.77-2.46,2.41,2.41,0,0,1,0-.38,2.7,2.7,0,0,1,2.64-3,2.39,2.39,0,0,1,2.34,2.44,1.48,1.48,0,0,1,0,.21,3.84,3.84,0,0,1,0,.48Zm3-.73a1.47,1.47,0,0,0-1.26-1.66h-.16a1.7,1.7,0,0,0-1.58,1.7Z" transform="translate(-0.04 0)" style="fill:#231f20"/><path d="M146.65,89.74V88.22h.91v.93h0a2.07,2.07,0,0,1,1.86-1.06c.78,0,2,.46,2,2.4v3.36h-1V90.6c0-.91-.34-1.66-1.31-1.66a1.45,1.45,0,0,0-1.37,1,1.25,1.25,0,0,0-.07.47V93.8h-1Z" transform="translate(-0.04 0)" style="fill:#231f20"/><path d="M154.89,86.6v1.59h1.46V89h-1.46v3c0,.69.19,1.09.77,1.09a2.32,2.32,0,0,0,.59-.07v.77a2.55,2.55,0,0,1-.91.14,1.45,1.45,0,0,1-1.11-.43,2.14,2.14,0,0,1-.4-1.47V88.93H153v-.74h.87V86.84Z" transform="translate(-0.04 0)" style="fill:#231f20"/><path d="M166.66,92.8a2.58,2.58,0,0,0,1.35.41c.75,0,1.09-.37,1.09-.84s-.29-.75-1-1c-1-.36-1.49-.92-1.49-1.6a1.73,1.73,0,0,1,1.8-1.66h.14a2.81,2.81,0,0,1,1.39.35l-.26.74a2.22,2.22,0,0,0-1.15-.32c-.61,0-.95.35-.95.77s.34.67,1.08,1c1,.37,1.47.86,1.47,1.7A1.88,1.88,0,0,1,168,94a3.15,3.15,0,0,1-1.59-.39Z" transform="translate(-0.04 0)" style="fill:#231f20"/><path d="M172.37,88.19l1.23,3.33c.13.37.27.81.36,1.15h0c.11-.34.23-.77.37-1.18l1.11-3.3h1.09l-1.54,4c-.73,1.94-1.24,2.93-1.93,3.53a2.74,2.74,0,0,1-1.26.66l-.26-.86a2.42,2.42,0,0,0,.9-.5,3.1,3.1,0,0,0,.86-1.14.68.68,0,0,0,.08-.24.9.9,0,0,0-.07-.27l-2.06-5.18Z" transform="translate(-0.04 0)" style="fill:#231f20"/><path d="M177.81,92.8a2.58,2.58,0,0,0,1.35.41c.75,0,1.1-.37,1.1-.84s-.29-.75-1-1c-1-.36-1.49-.92-1.49-1.6a1.73,1.73,0,0,1,1.8-1.66h.14a2.81,2.81,0,0,1,1.39.35l-.29.72a2.22,2.22,0,0,0-1.15-.32c-.61,0-.94.35-.94.77s.33.67,1.07,1c1,.37,1.48.86,1.48,1.7A1.89,1.89,0,0,1,179.16,94a3.11,3.11,0,0,1-1.58-.39Z" transform="translate(-0.04 0)" style="fill:#231f20"/><path d="M184.42,86.6v1.59h1.47V89h-1.47v3c0,.69.2,1.09.77,1.09a2.32,2.32,0,0,0,.59-.07v.77a2.55,2.55,0,0,1-.91.14,1.45,1.45,0,0,1-1.11-.43,2.08,2.08,0,0,1-.39-1.47V88.93h-.87v-.74h.87V86.84Z" transform="translate(-0.04 0)" style="fill:#231f20"/><path d="M188.12,91.19a1.8,1.8,0,0,0,1.6,2,1.3,1.3,0,0,0,.34,0,3.8,3.8,0,0,0,1.56-.29l.17.73a4.61,4.61,0,0,1-1.87.35,2.62,2.62,0,0,1-2.78-2.44,2.67,2.67,0,0,1,0-.4,2.75,2.75,0,0,1,2.47-3h.18a2.39,2.39,0,0,1,2.34,2.44,1.48,1.48,0,0,1,0,.21,3.84,3.84,0,0,1,0,.48Zm3-.73a1.47,1.47,0,0,0-1.26-1.66h-.16a1.71,1.71,0,0,0-1.58,1.67Z" transform="translate(-0.04 0)" style="fill:#231f20"/><path d="M194,89.74V88.22h.9v.9h0a2,2,0,0,1,1.77-1,1.66,1.66,0,0,1,1.59,1.13h0a2.24,2.24,0,0,1,.63-.74,1.91,1.91,0,0,1,1.24-.39c.75,0,1.85.49,1.85,2.44v3.32h-1V90.69c0-1.08-.39-1.73-1.22-1.73a1.32,1.32,0,0,0-1.21.93,1.75,1.75,0,0,0-.08.51v3.48h-1V90.51c0-.9-.4-1.55-1.18-1.55A1.4,1.4,0,0,0,195,90a1.42,1.42,0,0,0-.08.5v3.4h-1Z" transform="translate(-0.04 0)" style="fill:#231f20"/><path d="M21.44,81.83V64a9,9,0,0,0-.27-2.31,4,4,0,0,0-1-1.81,5.69,5.69,0,0,0-1.81-1.13,8.27,8.27,0,0,0-3.23-.52,16.64,16.64,0,0,0-5.49,1.12A9.78,9.78,0,0,0,8.19,60c-.52.26-1,.56-1.59.86s-1,.64-1.54,1a12.22,12.22,0,0,0-1.32,1v19H.66V47.19H3.74v12.1c.84-.54,1.65-1,2.46-1.48a21.93,21.93,0,0,1,2.45-1.16,18,18,0,0,1,6.57-1.29q4.68,0,7.14,2.54A7.71,7.71,0,0,1,24,60.52a9.93,9.93,0,0,1,.54,3.5V81.88Z" transform="translate(-0.04 0)" style="fill:#404041;stroke:#404041;stroke-miterlimit:10;stroke-width:0.05999999865889549px"/><path d="M58,73.86a12.15,12.15,0,0,1-2.63,4.3,13,13,0,0,1-4.49,3,16.5,16.5,0,0,1-6.48,1.16A17.14,17.14,0,0,1,38,81.23a12.91,12.91,0,0,1-4.53-3,12.41,12.41,0,0,1-2.72-4.33,14.72,14.72,0,0,1-.92-5.13A13.82,13.82,0,0,1,31,63a11.81,11.81,0,0,1,3.13-4.24,13.81,13.81,0,0,1,4.62-2.64,17.89,17.89,0,0,1,11.25,0,13.68,13.68,0,0,1,4.6,2.66,12.44,12.44,0,0,1,3.1,4.26,13.82,13.82,0,0,1,1.14,5.74A14.74,14.74,0,0,1,58,73.86Zm-2.21-5a10.83,10.83,0,0,0-.87-4.42,9.94,9.94,0,0,0-2.39-3.35A10.06,10.06,0,0,0,48.91,59a13.74,13.74,0,0,0-4.54-.72,14.06,14.06,0,0,0-4.55.72,10.06,10.06,0,0,0-3.61,2.09,9.71,9.71,0,0,0-2.39,3.35,10.84,10.84,0,0,0-.88,4.42,11.39,11.39,0,0,0,.7,4,9.45,9.45,0,0,0,2.09,3.39,10,10,0,0,0,3.58,2.35,13.71,13.71,0,0,0,5.11.87,13.34,13.34,0,0,0,5-.87A9.89,9.89,0,0,0,53,76.25,9.74,9.74,0,0,0,55,72.89a11.62,11.62,0,0,0,.7-4Z" transform="translate(-0.04 0)" style="fill:#404041;stroke:#404041;stroke-miterlimit:10;stroke-width:0.05999999865889549px"/><path d="M84.7,81.36a16.71,16.71,0,0,1-5.94,1A25.12,25.12,0,0,1,75,82.05a11.35,11.35,0,0,1-3.91-1.34A8.76,8.76,0,0,1,68,77.77a9.3,9.3,0,0,1-1.25-5.1V58.75H59.34V55.89h7.41V48.61h3.06v7.23H84.33V58.7H69.81v14a6.71,6.71,0,0,0,.76,3.4,5.64,5.64,0,0,0,2,2,8.34,8.34,0,0,0,2.9,1,20.59,20.59,0,0,0,3.33.27,12.67,12.67,0,0,0,4.93-1c1.53-.64,3-1.31,4.31-2l1.67-.82-.34,3.54A32.46,32.46,0,0,1,84.7,81.36Z" transform="translate(-0.04 0)" style="fill:#404041;stroke:#404041;stroke-miterlimit:10;stroke-width:0.05999999865889549px"/><path d="M118.59,77.47A8.86,8.86,0,0,1,116.15,80a12.32,12.32,0,0,1-4,1.79,21.36,21.36,0,0,1-5.34.62,25.63,25.63,0,0,1-4.28-.33,28.64,28.64,0,0,1-3.66-.87,10.7,10.7,0,0,1-3-1.36,29.55,29.55,0,0,1-3-2.35s1.18-.76,2.7-1.8a12.42,12.42,0,0,0,4.11,2.58,18.67,18.67,0,0,0,6.9,1.14,18.48,18.48,0,0,0,4.19-.45,10.74,10.74,0,0,0,3.53-1.38,3.9,3.9,0,0,0,2-3.26,3.55,3.55,0,0,0-.29-1.4,3.07,3.07,0,0,0-.91-1.28,5,5,0,0,0-1-.71,7.33,7.33,0,0,0-1.56-.58c-.66-.18-1.47-.36-2.45-.54l-3.72-.62c-1.42-.21-2.64-.4-3.65-.58s-1.88-.36-2.61-.54a9.54,9.54,0,0,1-1.87-.62,8.12,8.12,0,0,1-1.5-.89A5.39,5.39,0,0,1,94.24,62a5,5,0,0,1,1-3.12,6.72,6.72,0,0,1,2.63-2,20.83,20.83,0,0,1,8.62-1.48,29.32,29.32,0,0,1,3.86.25,13,13,0,0,1,3.68,1,10.16,10.16,0,0,1,2.23,1.3,13.52,13.52,0,0,1,2.37,2.41l-2.41,2.09a8.87,8.87,0,0,0-3.59-3,14.66,14.66,0,0,0-6.14-1.09,31.1,31.1,0,0,0-4.09.27,10.17,10.17,0,0,0-3.23.94A2.8,2.8,0,0,0,97.34,62a2.43,2.43,0,0,0,.22,1,2.82,2.82,0,0,0,.85,1,4.82,4.82,0,0,0,1,.6,9.16,9.16,0,0,0,1.45.49c.61.17,1.41.34,2.41.52s2.29.39,3.86.62,2.66.46,3.69.65a27.82,27.82,0,0,1,2.72.63,10.26,10.26,0,0,1,2,.75,8,8,0,0,1,1.56,1,6.23,6.23,0,0,1,1.72,2.19,6.46,6.46,0,0,1,.6,2.73A6.18,6.18,0,0,1,118.59,77.47Z" transform="translate(-0.04 0)" style="fill:#404041;stroke:#404041;stroke-miterlimit:10;stroke-width:0.05999999865889549px"/><path d="M151.19,73.86a12.17,12.17,0,0,1-2.64,4.3,12.94,12.94,0,0,1-4.48,3,16.5,16.5,0,0,1-6.48,1.16,17.14,17.14,0,0,1-6.34-1.09,12.91,12.91,0,0,1-4.53-3A12.41,12.41,0,0,1,124,73.9a14.72,14.72,0,0,1-.92-5.13A13.82,13.82,0,0,1,124.22,63a11.9,11.9,0,0,1,3.12-4.24A14,14,0,0,1,132,56.15a17.89,17.89,0,0,1,11.25,0,13.68,13.68,0,0,1,4.6,2.66,12.44,12.44,0,0,1,3.1,4.26,13.82,13.82,0,0,1,1.14,5.74A14.74,14.74,0,0,1,151.19,73.86Zm-2.21-5a10.83,10.83,0,0,0-.87-4.42,9.8,9.8,0,0,0-6-5.44,13.68,13.68,0,0,0-4.53-.72A14.06,14.06,0,0,0,133,59a10.18,10.18,0,0,0-3.62,2.09A9.94,9.94,0,0,0,127,64.44a10.83,10.83,0,0,0-.87,4.42,11.61,11.61,0,0,0,.69,4A9.36,9.36,0,0,0,129,76.25a9.71,9.71,0,0,0,3.57,2.35,13.71,13.71,0,0,0,5.11.87,13.34,13.34,0,0,0,5-.87,9.63,9.63,0,0,0,5.6-5.71,11.61,11.61,0,0,0,.69-4Z" transform="translate(-0.04 0)" style="fill:#404041;stroke:#404041;stroke-miterlimit:10;stroke-width:0.05999999865889549px"/><path d="M180.81,51.11a11.28,11.28,0,0,0-2-1.78,8.19,8.19,0,0,0-1.83-.9,16,16,0,0,0-5.4-.84,17.49,17.49,0,0,0-3.31.29,8,8,0,0,0-2.68,1,5.66,5.66,0,0,0-1.87,1.9,5.92,5.92,0,0,0-.72,3v2h14.47v2.86H163.08V93.71H160v-35h-5.85V55.89H160v-2.1a9.35,9.35,0,0,1,1-4.31,7.68,7.68,0,0,1,3-3.06,15.07,15.07,0,0,1,7.73-1.78,25.32,25.32,0,0,1,3.37.22,15.52,15.52,0,0,1,3,.76,14.59,14.59,0,0,1,2,.94,21.42,21.42,0,0,1,2.54,1.78Z" transform="translate(-0.04 0)" style="fill:#404041;stroke:#404041;stroke-miterlimit:10;stroke-width:0.05999999865889549px"/><path d="M205.27,81.36a16.65,16.65,0,0,1-5.93,1,25.14,25.14,0,0,1-3.78-.31,11.3,11.3,0,0,1-3.9-1.34,8.79,8.79,0,0,1-3.09-2.94,9.23,9.23,0,0,1-1.24-5.1V58.75h-7.41V55.89h7.41V48.61h3.08v7.23H207V58.7H190.41v14a6.71,6.71,0,0,0,.76,3.4,5.64,5.64,0,0,0,2,2,8.27,8.27,0,0,0,2.9,1,20.56,20.56,0,0,0,3.32.27,12.68,12.68,0,0,0,4.94-1c1.53-.64,3-1.31,4.3-2L210,79.09A32.29,32.29,0,0,1,205.27,81.36Z" transform="translate(-0.04 0)" style="fill:#404041;stroke:#404041;stroke-miterlimit:10;stroke-width:0.05999999865889549px"/><path d="M126.81,24.39A24.4,24.4,0,1,1,102.4,0h0a24.39,24.39,0,0,1,24.4,24.38Z" transform="translate(-0.04 0)" style="fill:url(#radial-gradient)"/><path d="M112.16,2a24.41,24.41,0,0,1,12.6,32.13,24.78,24.78,0,0,1-2.24,4A30.14,30.14,0,0,0,116.41,23C110.37,14.75,110.57,7.29,112.16,2ZM94.22,23.09a7.53,7.53,0,0,0-3.48.86V45.83a24.38,24.38,0,0,0,11,3V30.6A7.52,7.52,0,0,0,94.22,23.09ZM85.44,6.85a24.39,24.39,0,0,0-.58,34.5c.19.2.38.39.58.58Zm26.71,19.26c-7.27-9.9-6.86-19-5.24-24.89.07-.26.14-.51.22-.76A24.27,24.27,0,0,0,90.74,3V18.32A12.8,12.8,0,0,1,107,30.64V48.38a24.1,24.1,0,0,0,10.09-4.49c.76-4.89,0-11-4.95-17.78Z" transform="translate(-0.04 0)" style="fill:url(#radial-gradient-2)"/><polygon points="90.45 45.7 90.45 24.12 90.69 23.98 90.69 45.83 90.45 45.7" style="fill:#231f20"/><path d="M90.74,3V18.28A12.8,12.8,0,0,1,107,30.6V48.34l-.23,0V31a12.63,12.63,0,0,0-12.34-12.9h-.3a13.64,13.64,0,0,0-3.64.59V3.1Z" transform="translate(-0.04 0)" style="fill:#231f20"/><path d="M122.38,38.38a30.51,30.51,0,0,0-6.11-15.31c-6-8.29-5.84-15.8-4.26-21.1l.14.06c-1.58,5.26-1.78,12.72,4.26,21a30.14,30.14,0,0,1,6.11,15.2Z" transform="translate(-0.04 0)" style="fill:#231f20"/></svg>